<svg xmlns="http://www.w3.org/2000/svg" width="43.909" height="77.145" viewBox="0 0 43.909 77.145">
  <g id="Grupo_25" data-name="Grupo 25" transform="translate(-166.614 -276.828)">
    <path id="Caminho_9" data-name="Caminho 9" d="M186.645,193.46v11.717s-.689,4.376,4.24,4.444c5.691.074,30.1,0,30.1,0" transform="translate(-17.482 130.017)" fill="none" stroke="#2398ff" stroke-miterlimit="10" stroke-width="5"/>
    <line id="Linha_2" data-name="Linha 2" y2="14.636" transform="translate(189.143 339.337)" fill="none" stroke="#2398ff" stroke-miterlimit="10" stroke-width="5"/>
    <path id="Caminho_10" data-name="Caminho 10" d="M228.863,193.46v11.717s.689,4.376-4.245,4.444c-5.691.074-30.1,0-30.1,0" transform="translate(-20.89 130.017)" fill="none" stroke="#2398ff" stroke-miterlimit="10" stroke-width="5"/>
    <path id="Caminho_11" data-name="Caminho 11" d="M195.44,188.41v1.87c0,5.618,4.2,10.17,9.385,10.17h4.216c5.187,0,9.39-4.538,9.39-10.17v-1.87Z" transform="translate(-18.367 133.897)" fill="#2398ff"/>
    <path id="Caminho_12" data-name="Caminho 12" d="M213.135,98.693V95.97h5.3v-2.6h-5.3V90.651h5.3v-2.6H213.1V85.333h5.332V82.714H213.1V79.991h5.332V78.085a9.385,9.385,0,0,0-9.39-9.385h-4.216a9.385,9.385,0,0,0-9.385,9.385v1.906h5.246v2.723H195.44v2.6h5.292v2.723H195.44V90.62h5.292v2.723H195.44v2.6h5.292v2.723H195.44v12.347h22.991V98.693Z" transform="translate(-18.367 208.128)" fill="#2398ff"/>
  </g>
</svg>
