<svg xmlns="http://www.w3.org/2000/svg" width="177.885" height="94.425" viewBox="0 0 177.885 94.425">
  <g id="Group_5" data-name="Group 5" transform="translate(-99 -38.934)">
    <g id="logo" transform="translate(99 36.264)">
      <g id="Camada_1" data-name="Camada 1" transform="translate(0 -16.33)">
        <path id="Path_1" data-name="Path 1" d="M69.158,41.686a1.2,1.2,0,0,1,1.286,1.286l-1.376,13.97A1.559,1.559,0,0,1,67.6,58.229H53.91v45.577a1.34,1.34,0,0,1-1.277,1.286H36.358a1.4,1.4,0,0,1-1.38-1.286V58.251H19.726a1.34,1.34,0,0,1-1.286-1.286v-13.9a1.4,1.4,0,0,1,1.286-1.38Z" transform="translate(-18.44 -20.677)" fill="#fff"/>
        <path id="Path_2" data-name="Path 2" d="M186.638,193.46v9.2s-.54,3.435,3.327,3.488c4.466.058,23.626,0,23.626,0" transform="translate(-111.504 -103.97)" fill="none" stroke="#d4dfeb" stroke-miterlimit="10" stroke-width="3"/>
        <line id="Line_1" data-name="Line 1" y2="11.487" transform="translate(90.815 101.938)" fill="none" stroke="#d4dfeb" stroke-miterlimit="10" stroke-width="3"/>
        <path id="Path_3" data-name="Path 3" d="M221.473,193.46v9.2s.54,3.435-3.332,3.488c-4.466.058-23.622,0-23.622,0" transform="translate(-115.88 -103.97)" fill="none" stroke="#d4dfeb" stroke-miterlimit="10" stroke-width="3"/>
        <path id="Path_4" data-name="Path 4" d="M195.44,188.41v1.657c0,4.979,3.724,9.013,8.317,9.013h3.736c4.6,0,8.321-4.022,8.321-9.013V188.41Z" transform="translate(-115.264 -103.944)" fill="#a4c0d9"/>
        <path id="Path_5" data-name="Path 5" d="M211.121,95.281V92.868h4.694v-2.3h-4.694V88.154h4.694v-2.3h-4.726V83.44h4.726V81.12h-4.726V78.706h4.726V77.017a8.317,8.317,0,0,0-8.321-8.317h-3.736a8.317,8.317,0,0,0-8.317,8.317v1.689h4.649V81.12H195.44v2.3h4.69v2.413h-4.69v2.288h4.69v2.413h-4.69v2.3h4.69v2.413h-4.69v19.655h20.375V95.281Z" transform="translate(-115.264 -32.38)" fill="#fff"/>
        <text id="k" transform="translate(100.783 85)" fill="#fff" font-size="86" font-family="Helvetica" letter-spacing="0.02em"><tspan x="0" y="0">k</tspan></text>
        <path id="Path_8" data-name="Path 8" d="M17.932,0A17.932,17.932,0,1,1,0,17.932,17.932,17.932,0,0,1,17.932,0Z" transform="translate(133.27 41.406)" fill="#2398ff"/>
        <path id="Path_6" data-name="Path 6" d="M354.857,101.528a.621.621,0,0,1,.558.965l-7.249,12.42h6.579a.518.518,0,0,1,.558.523v6.025a.54.54,0,0,1-.558.518H338.087a.63.63,0,0,1-.558-1l7.253-12.237h-5.726a.567.567,0,0,1-.523-.558v-6.1a.567.567,0,0,1,.522-.558Z" transform="translate(-194.951 -53.794)" fill="#fff"/>
        <rect id="Rectangle_4" data-name="Rectangle 4" width="4.614" height="0.63" transform="translate(173.272 101.185)" fill="#748ca3"/>
        <path id="Path_7" data-name="Path 7" d="M106.235,95.717a1.148,1.148,0,0,1,.375-1.407,31.686,31.686,0,0,1,16.306-4.221c13,0,19.017,6.739,19.017,21.487v19.2a1.148,1.148,0,0,1-1.13,1.112h-9.468a1.215,1.215,0,0,1-1.2-1.112l-.527-2c-2.479,2.595-7.441,4.225-12.925,4.225-8.646,0-14.354-5.484-14.292-13.635.076-7.262,5.806-12.059,14.292-12.059,4.359,0,8.267,1.554,9.767,3.926v-3.126c0-3.184-2.331-5.261-5.806-5.261a19.919,19.919,0,0,0-9.017,2.372c-.375.223-.826-.076-1.125-.594Zm20.214,22.822a5.6,5.6,0,0,0-4.131-1.849c-1.88,0-3.158,1.036-3.158,2.68s1.277,2.68,3.158,2.68a5.6,5.6,0,0,0,4.131-1.853Z" transform="translate(-64.896 -47.465)" fill="#fff"/>
      </g>
    </g>
    <path id="Path_13" data-name="Path 13" d="M18.8,0A18.8,18.8,0,1,1,0,18.8,18.8,18.8,0,0,1,18.8,0Z" transform="translate(231.27 61.34)" fill="#2398ff" stroke="#fff" stroke-width="1"/>
    <path id="Path_14" data-name="Path 14" d="M354.857,101.528a.621.621,0,0,1,.558.965l-7.249,12.42h6.579a.518.518,0,0,1,.558.523v6.025a.54.54,0,0,1-.558.518H338.087a.63.63,0,0,1-.558-1l7.253-12.237h-5.726a.567.567,0,0,1-.523-.558v-6.1a.567.567,0,0,1,.522-.558Z" transform="translate(-95.951 -31.86)" fill="#fff"/>
  </g>
</svg>
