<?xml version="1.0" encoding="UTF-8" standalone="no"?>
<svg
   xmlns:dc="http://purl.org/dc/elements/1.1/"
   xmlns:cc="http://creativecommons.org/ns#"
   xmlns:rdf="http://www.w3.org/1999/02/22-rdf-syntax-ns#"
   xmlns:svg="http://www.w3.org/2000/svg"
   xmlns="http://www.w3.org/2000/svg"
   xmlns:sodipodi="http://sodipodi.sourceforge.net/DTD/sodipodi-0.dtd"
   xmlns:inkscape="http://www.inkscape.org/namespaces/inkscape"
   width="710.721"
   height="732.768"
   viewBox="0 0 710.721 732.768"
   version="1.1"
   id="svg19"
   sodipodi:docname="zz.svg"
   inkscape:version="1.0.1 (3bc2e813f5, 2020-09-07)">
  <metadata
     id="metadata23">
    <rdf:RDF>
      <cc:Work
         rdf:about="">
        <dc:format>image/svg+xml</dc:format>
        <dc:type
           rdf:resource="http://purl.org/dc/dcmitype/StillImage" />
        <dc:title></dc:title>
      </cc:Work>
    </rdf:RDF>
  </metadata>
  <sodipodi:namedview
     pagecolor="#ffffff"
     bordercolor="#666666"
     borderopacity="1"
     objecttolerance="10"
     gridtolerance="10"
     guidetolerance="10"
     inkscape:pageopacity="0"
     inkscape:pageshadow="2"
     inkscape:window-width="1920"
     inkscape:window-height="1017"
     id="namedview21"
     showgrid="false"
     inkscape:zoom="0.82023336"
     inkscape:cx="240.86334"
     inkscape:cy="462.84244"
     inkscape:window-x="-8"
     inkscape:window-y="-8"
     inkscape:window-maximized="1"
     inkscape:current-layer="svg19" />
  <defs
     id="defs13">
    <filter
       id="Path_16"
       x="0"
       y="0"
       width="710.721"
       height="732.768"
       filterUnits="userSpaceOnUse">
      <feOffset
         dy="3"
         input="SourceAlpha"
         id="feOffset2" />
      <feGaussianBlur
         stdDeviation="22"
         result="blur"
         id="feGaussianBlur4" />
      <feFlood
         flood-opacity="0.459"
         id="feFlood6" />
      <feComposite
         operator="in"
         in2="blur"
         id="feComposite8"
         result="result1" />
      <feComposite
         in="SourceGraphic"
         in2="result1"
         id="feComposite10" />
    </filter>
    <clipPath
       clipPathUnits="userSpaceOnUse"
       id="clipPath31">
      <rect
         style="fill:#0000ff;fill-rule:evenodd;stroke-width:1.05015"
         id="rect33"
         width="502.43167"
         height="624.93335"
         x="247.226"
         y="480.15701" />
    </clipPath>
  </defs>
  <g
     id="Group_4"
     data-name="Group 4"
     transform="translate(-128.529 -417.121)"
     clip-path="url(#clipPath31)"
     inkscape:export-filename="C:\Users\phili\Pictures\zz.svg.png"
     inkscape:export-xdpi="96"
     inkscape:export-ydpi="96">
    <g
       transform="matrix(1, 0, 0, 1, 128.53, 417.12)"
       filter="url(#Path_16)"
       id="g16">
      <path
         id="Path_16-2"
         data-name="Path 16"
         d="M894.94,101.57a20.327,20.327,0,0,1,18.522,9.058,17,17,0,0,1-.684,19.276L681.192,494.71H891.371a17.46,17.46,0,0,1,12.6,4.062,14.656,14.656,0,0,1,5.238,11.286V687.017c-.388,8.717-8.351,15.513-17.837,15.218H359.144a20.6,20.6,0,0,1-19.187-9.423,17.268,17.268,0,0,1,1.352-19.961L573.035,313.422H390.109c-9.337-.677-16.576-7.787-16.695-16.4V117.967c.118-8.611,7.358-15.72,16.692-16.4Z"
         transform="translate(-271.41 -38.53)"
         fill="#fff" />
    </g>
  </g>
</svg>
